<svg version="1.1" id="Layer_1" x="0" y="0" viewBox="0 0 500 500" style="enable-background:new 0 0 500 500" xml:space="preserve" xmlns="http://www.w3.org/2000/svg"><defs id="defs4668"><clipPath clipPathUnits="userSpaceOnUse" id="clipPath9346"><path id="lpe_path-effect9354" class="powerclip" d="M85.87 4.403h316.896v353.692H85.87Zm130.204 174.154c16.32 0 29.558-13.239 29.558-29.558 0-16.32-13.239-29.558-29.558-29.558 0 0-10.64-2.333-22.044 0-11.403 2.334-34.645 21.002-40.914 29.558-6.27 8.556-7.826 13.223-4.714 19.446 3.111 6.223 9.334 6.223 15.557 3.112 6.222-3.112 13.223-14.002 17.501-17.89 4.278-3.89 5.43 0 5.43 0l.03-.032c2.225 14.11 14.406 24.922 29.154 24.922zM343.354 155c14.001 0 25.358-11.357 25.358-25.358 0-14.001-11.357-25.358-25.358-25.358 0 0-9.132-2.007-18.917 0-9.785 2.007-29.714 18.03-35.096 25.358-5.383 7.327-6.721 11.34-4.045 16.677 2.676 5.351 8.012 5.351 13.348 2.676 5.336-2.676 11.34-12.026 15.012-15.355 3.671-3.33 4.651 0 4.651 0l.032-.031c1.913 12.119 12.367 21.39 25.015 21.39z"/></clipPath></defs><style type="text/css" id="style4653">.st1{fill:#fff}</style><g id="g10966" transform="translate(6.337)"><path class="st1" d="M279.779 370.82s12.496-57.274 9.372-78.1c8.33-21.869 6.248-47.902 6.248-52.067 0-4.166-2.083-14.58 6.248-14.58 8.33 0 12.496 9.373 14.579 14.58 2.082 5.206 4.165 13.537 4.165 27.074 0 13.538-2.083 22.91-3.124 30.72 4.165 24.471 0 55.712 0 55.712s19.785-14.58 27.075-13.538c5.207 0 6.248 2.083 10.413 6.248 4.166 4.166 16.662 24.992 19.786 30.2 3.124 5.206 14.578 23.95 15.62 28.115 3.124 11.455-2.083 19.786-6.248 31.24-4.166 11.455-8.331 18.745-12.496 23.951-5.207 5.207-5.207 4.166-11.455 7.29-6.248 3.124-10.413 8.33-14.579 20.827-12.496 7.289-94.762 14.089-95.803 9.372-1.042-4.718 16.661-78.1 16.661-88.514 0-10.414-.52-23.43.52-26.554 1.042-3.124 13.018-11.976 13.018-11.976z" id="path4657" style="stroke-width:1.04134"/><path class="st1" d="M373 71c-23-33-71-58-110-61s-89 5-118 31c0 0-26 22-38 47s-19 55-15 86 43 85 66 112 53 49 68 57c21.19 10.6 29.72 11.62 45.65 8.65C272.13 349.8 275 340 277 320c2-17 1-32 1-32s4-7 7-28c1-16-2-28 4-38 2.57-4.29 17-8 25 0 6.67 5.46 12.5 23.84 13 33s-.03 28.01-2 41c3 11 2.3 18.37 2 30 8.47-8.18 14.38-21.75 20-30 15-22 44-85 49-112s0-80-23-113z" id="path4663" clip-path="url(#clipPath9346)" transform="translate(-10.755 -9.27) scale(1.04134)"/></g></svg>