<?xml version="1.0" encoding="UTF-8" standalone="no"?>
<!-- Generator: Adobe Illustrator 27.0.0, SVG Export Plug-In . SVG Version: 6.00 Build 0)  -->

<svg
   version="1.1"
   id="Layer_1"
   x="0px"
   y="0px"
   viewBox="0 0 500 500"
   style="enable-background:new 0 0 500 500;"
   xml:space="preserve"
   sodipodi:docname="secrets-dark.svg"
   inkscape:version="1.2.2 (732a01da63, 2022-12-09, custom)"
   xmlns:inkscape="http://www.inkscape.org/namespaces/inkscape"
   xmlns:sodipodi="http://sodipodi.sourceforge.net/DTD/sodipodi-0.dtd"
   xmlns:xlink="http://www.w3.org/1999/xlink"
   xmlns="http://www.w3.org/2000/svg"
   xmlns:svg="http://www.w3.org/2000/svg"><defs
   id="defs4668"><inkscape:path-effect
     effect="powerclip"
     id="path-effect9354"
     is_visible="true"
     lpeversion="1"
     inverse="true"
     flatten="false"
     hide_clip="false"
     message="Use fill-rule evenodd on &lt;b&gt;fill and stroke&lt;/b&gt; dialog if no flatten result after convert clip to paths." /><clipPath
     clipPathUnits="userSpaceOnUse"
     id="clipPath9346"><g
       id="g9352"
       style="display:none"><path
         d="m 216.07415,178.55717 c -14.74791,0 -26.92894,-10.81203 -29.15358,-24.92211 l -0.0311,0.0311 c 0,0 -1.15121,-3.88922 -5.42935,0 -4.27814,3.88921 -11.27873,14.77902 -17.50148,17.8904 -6.22275,3.11137 -12.44549,3.11137 -15.55687,-3.11138 -3.11137,-6.22274 -1.55569,-10.88981 4.71373,-19.44608 6.26942,-8.55628 29.51139,-27.22453 40.91457,-29.55806 11.40319,-2.33353 22.04409,0 22.04409,0 16.31916,0 29.55805,13.2389 29.55805,29.55806 0,16.31915 -13.23889,29.55805 -29.55805,29.55805 z"
         style="fill:#000000;fill-opacity:1;stroke-width:1.55569"
         id="path9348"
         sodipodi:nodetypes="sccssssscsss" /><path
         d="m 343.35395,154.99958 c -12.64773,0 -23.10195,-9.27189 -25.01545,-21.3907 l -0.0311,0.0311 c 0,0 -0.98008,-3.32917 -4.6515,0 -3.67143,3.32917 -9.67638,12.67885 -15.01238,15.35463 -5.33601,2.67578 -10.67202,2.67578 -13.3478,-2.67578 -2.67578,-5.33601 -1.33789,-9.34968 4.04479,-16.67697 5.38267,-7.32728 25.31103,-23.35086 35.0963,-25.3577 9.78527,-2.00683 18.91715,0 18.91715,0 14.00119,0 25.3577,11.35652 25.3577,25.3577 0,14.00118 -11.35651,25.3577 -25.3577,25.3577 z"
         style="fill:#000000;fill-opacity:1;stroke-width:1.55569"
         id="path9350" /></g><path
       id="lpe_path-effect9354"
       class="powerclip"
       d="M 85.870044,4.4030494 H 402.7657 V 358.09547 H 85.870044 Z M 216.07415,178.55717 l 1e-5,-2e-5 c 16.31916,0 29.55805,-13.2389 29.55805,-29.55805 0,-16.31916 -13.23889,-29.55806 -29.55805,-29.55806 0,0 -10.6409,-2.33353 -22.04409,0 -11.40318,2.33353 -34.64515,21.00178 -40.91457,29.55806 -6.26942,8.55627 -7.8251,13.22334 -4.71373,19.44608 3.11138,6.22275 9.33412,6.22275 15.55687,3.11138 6.22275,-3.11138 13.22334,-14.00119 17.50148,-17.8904 4.27814,-3.88922 5.42935,0 5.42935,0 l 0.0311,-0.0311 c 2.22464,14.11008 14.40567,24.92211 29.15358,24.92211 z m 127.2798,-23.55759 10e-6,-2e-5 c 14.00119,0 25.3577,-11.35652 25.3577,-25.3577 0,-14.00118 -11.35651,-25.3577 -25.3577,-25.3577 0,0 -9.13188,-2.00683 -18.91715,0 -9.78527,2.00684 -29.71363,18.03042 -35.0963,25.3577 -5.38268,7.32729 -6.72057,11.34096 -4.04479,16.67697 2.67578,5.35156 8.01179,5.35156 13.3478,2.67578 5.336,-2.67578 11.34095,-12.02546 15.01238,-15.35463 3.67142,-3.32917 4.6515,0 4.6515,0 l 0.0311,-0.0311 c 1.9135,12.11881 12.36772,21.3907 25.01545,21.3907 z" /></clipPath></defs><sodipodi:namedview
   id="namedview4666"
   pagecolor="#8a8a8a"
   bordercolor="#000000"
   borderopacity="0.25"
   inkscape:showpageshadow="2"
   inkscape:pageopacity="0"
   inkscape:pagecheckerboard="true"
   inkscape:deskcolor="#d1d1d1"
   showgrid="false"
   inkscape:zoom="1.3350176"
   inkscape:cx="15.73013"
   inkscape:cy="224.34161"
   inkscape:window-width="2048"
   inkscape:window-height="1088"
   inkscape:window-x="0"
   inkscape:window-y="0"
   inkscape:window-maximized="1"
   inkscape:current-layer="Layer_1" />
<style
   type="text/css"
   id="style4653">
	.st0{fill:#2C66DB;}
	.st1{fill:#FFFFFF;}
	.st2{display:none;fill:#FFFFFF;}
</style>


<path
   class="st2"
   d="M373,71c-23-33-71-58-110-61s-89,5-118,31c0,0-26,22-38,47s-19,55-15,86s43,85,66,112s53,49,68,57  c21.19,10.6,29.72,11.62,45.65,8.65C272.13,349.8,275,340,277,320c2-17,1-32,1-32s4-7,7-28c1-16-2-28,4-38c2.57-4.29,17-8,25,0  c6.67,5.46,12.5,23.84,13,33c0.5,9.16-0.03,28.01-2,41c3,11,2.3,18.37,2,30c8.47-8.18,14.38-21.75,20-30c15-22,44-85,49-112  S396,104,373,71z"
   id="path4659" />
<g
   id="g10966"
   transform="translate(6.3372014)"
   style="fill:#000000;fill-opacity:1"><path
     class="st1"
     d="m 279.7787,370.82014 c 0,0 12.49609,-57.27372 9.37207,-78.10053 8.33072,-21.86815 6.24804,-47.90166 6.24804,-52.06702 0,-4.16536 -2.08269,-14.57877 6.24804,-14.57877 8.33073,0 12.49609,9.37206 14.57877,14.57877 2.08268,5.2067 4.16536,13.53743 4.16536,27.07485 0,13.53742 -2.08268,22.90948 -3.12402,30.71954 4.16536,24.4715 0,55.71171 0,55.71171 0,0 19.78546,-14.57877 27.07484,-13.53742 5.20671,0 6.24805,2.08268 10.41341,6.24804 4.16536,4.16537 16.66145,24.99217 19.78547,30.19887 3.12403,5.20671 14.57877,23.95083 15.6201,28.11619 3.12403,11.45474 -2.08268,19.78547 -6.24804,31.24021 -4.16536,11.45475 -8.33072,18.74414 -12.49608,23.95083 -5.20671,5.2067 -5.20671,4.16537 -11.45474,7.28938 -6.24805,3.12403 -10.41341,8.33073 -14.57877,20.82682 -12.49609,7.28938 -94.76198,14.08934 -95.80332,9.37206 -1.04134,-4.71728 16.66145,-78.10053 16.66145,-88.51394 0,-10.4134 -0.52067,-23.43016 0.52066,-26.55418 1.04135,-3.12401 13.01676,-11.97541 13.01676,-11.97541 z"
     id="path4657"
     style="stroke-width:1.04134;fill:#000000;fill-opacity:1" /><path
     class="st1"
     d="M 373,71 C 350,38 302,13 263,10 224,7 174,15 145,41 c 0,0 -26,22 -38,47 -12,25 -19,55 -15,86 4,31 43,85 66,112 23,27 53,49 68,57 21.19,10.6 29.72,11.62 45.65,8.65 C 272.13,349.8 275,340 277,320 c 2,-17 1,-32 1,-32 0,0 4,-7 7,-28 1,-16 -2,-28 4,-38 2.57,-4.29 17,-8 25,0 6.67,5.46 12.5,23.84 13,33 0.5,9.16 -0.03,28.01 -2,41 3,11 2.3,18.37 2,30 8.47,-8.18 14.38,-21.75 20,-30 15,-22 44,-85 49,-112 5,-27 0,-80 -23,-113 z"
     id="path4663"
     sodipodi:nodetypes="sscssscccccccscccss"
     clip-path="url(#clipPath9346)"
     inkscape:original-d="M 373,71 C 350,38 302,13 263,10 224,7 174,15 145,41 c 0,0 -26,22 -38,47 -12,25 -19,55 -15,86 4,31 43,85 66,112 23,27 53,49 68,57 21.19,10.6 29.72,11.62 45.65,8.65 C 272.13,349.8 275,340 277,320 c 2,-17 1,-32 1,-32 0,0 4,-7 7,-28 1,-16 -2,-28 4,-38 2.57,-4.29 17,-8 25,0 6.67,5.46 12.5,23.84 13,33 0.5,9.16 -0.03,28.01 -2,41 3,11 2.3,18.37 2,30 8.47,-8.18 14.38,-21.75 20,-30 15,-22 44,-85 49,-112 5,-27 0,-80 -23,-113 z"
     inkscape:path-effect="#path-effect9354"
     transform="matrix(1.0413404,0,0,1.0413404,-10.755271,-9.2691097)"
     style="fill:#000000;fill-opacity:1" /></g>
</svg>
